<svg version="1.1" xmlns="http://www.w3.org/2000/svg" viewBox="-646.7106465765465 -322.0913508550316 1293.4212931530933 718.6761069317183" fill="none" stroke="black" stroke-width="0.6%" vector-effect="non-scaling-stroke">
    <path d="M -556.94199 316.6408 L -556.94199 351.77387 L -137.01328 392.73444 L -137.01328 357.60137" />
    <path d="M -556.94199 316.6408 L -137.01328 357.60137" />
    <path d="M -639.23848 277.26316 A 150 32.72027 180 0 0 -645.71065 286.77085 A 150 32.72027 180 0 0 -556.94199 316.6408" />
    <path d="M -645.71065 321.90391 A 150 32.72027 180 0 0 -556.94199 351.77387" />
    <path d="M -632.64392 273.41414 L -639.23848 277.26316" />
    <path d="M -99.27311 360.04795 A 150 32.72027 360 0 1 -137.01328 357.60137" />
    <path d="M -52.84892 348.60648 L -77.12808 360.45037 L -81.01534 362.34666 L -81.01534 137.88539 A 147 58.56167 95.57111 0 1 -24.77648 -32.72608" />
    <path d="M 57.03639 342.93732 A 150 32.72027 360 0 1 -77.12808 360.45037" />
    <path d="M 57.03639 342.93732 L 61.15134 341.08812 L 632.64392 62.30185 L 639.23848 58.45283 A 150 32.72027 180 0 0 645.71065 48.94514 A 150 32.72027 180 0 0 606.60341 26.91156 L 582.32426 38.75545" />
    <path d="M 578.36096 39.08571 L 582.32426 38.75545" />
    <path d="M 565.58053 37.83909 L 578.36096 39.08571" />
    <path d="M 565.58053 37.83909 L 564.06649 36.97455" />
    <path d="M 564.06649 19.81983 A 150 32.72027 180 0 0 556.94199 19.07519 L 137.01328 -21.88538 A 150 32.72027 180 0 0 98.26051 -24.36621" />
    <path d="M -70.23417 -0.94134 L -632.64392 273.41414" />
    <path d="M 121.42636 12.43681 A 50 10.90676 180 0 0 56.74313 17.32483 L 55.37148 17.94123 L -43.69512 66.26803" />
    <path d="M 450.06622 44.49291 L 121.42636 12.43681" />
    <path d="M 477.49838 57.61879 A 50 10.90676 180 0 0 479.65577 54.44956 A 50 10.90676 180 0 0 450.06622 44.49291" />
    <path d="M 475.3002 58.9018 L 477.49838 57.61879" />
    <path d="M -52.84892 316.54421 L 232.23938 177.47205" />
    <path d="M 238.63092 174.35412 L 268.97819 159.55008" />
    <path d="M 275.36973 156.43214 L 475.3002 58.9018" />
    <path d="M -121.42636 323.27918 A 50 10.90676 180 0 0 -99.27311 324.22266" />
    <path d="M -450.06622 291.22308 L -121.42636 323.27918" />
    <path d="M -477.49838 278.0972 A 50 10.90676 180 0 0 -479.65577 281.26643 A 50 10.90676 180 0 0 -450.06622 291.22308" />
    <path d="M -475.3002 276.81419 L -477.49838 278.0972" />
    <path d="M -96.55025 92.05189 L -475.3002 276.81419" />
    <path d="M 272.47192 183.68261 A 1.65 0.35992 180 0 0 272.32819 183.82953 A 1.65 0.35992 180 1 0 275.62819 183.82953 L 275.62819 176.04847" />
    <path d="M 235.73311 201.60458 A 1.65 0.35992 180 0 0 235.58938 201.7515 A 1.65 0.35992 180 1 0 238.88938 201.7515 L 238.88938 193.97044" />
    <path d="M 57.03639 378.07039 L 57.03639 342.93732" />
    <path d="M -137.01328 392.73444 A 150 32.72027 180 0 0 57.03639 378.07039 L 61.15134 376.22119 L 61.15134 341.08812" />
    <path d="M 61.15134 376.22119 L 632.64392 97.43492 L 632.64392 62.30185" />
    <path d="M 632.64392 97.43492 L 639.23848 93.5859 L 639.23848 58.45283" />
    <path d="M 639.23848 93.5859 A 150 32.72027 180 0 0 645.71065 84.07821" />
    <path d="M -99.27311 360.56576 L -99.27311 136.10449 A 147 58.56167 95.57111 0 1 -51.72692 -27.42255 L -49.24255 -29.8953 A 150 59.75681 95.57111 0 1 -40.37248 -37.12431 L -36.52773 -39.28872 L 534.96485 -318.07499 L 542.63917 -320.66438 A 150 59.75681 95.57111 0 1 549.527 -320.97868 L 562.30744 -319.73205 A 150 59.75681 95.57111 0 1 586.6939 -302.39561" />
    <path d="M 564.06649 -187.48672 L 564.06649 36.97455" />
    <path d="M 553.45249 -239.04791 A 78 31.07354 95.57111 0 1 564.06649 -187.48672" />
    <path d="M -99.27311 360.56576 L -97.75907 361.4303 L -97.75907 136.96903 L -99.27311 136.10449" />
    <path d="M -84.97864 362.67692 L -97.75907 361.4303" />
    <path d="M -81.01534 362.34666 L -84.97864 362.67692 L -84.97864 138.21565 L -81.01534 137.88539" />
    <path d="M 610.49068 25.01527 L 606.60341 26.91156" />
    <path d="M 548.5517 -243.90656 A 75 29.8784 95.57111 0 1 554.43916 -237.66472 A 75 29.8784 95.57111 0 1 565.58053 -186.62218 L 564.06649 -187.48672" />
    <path d="M 565.58053 -186.62218 L 565.58053 37.83909" />
    <path d="M -97.75907 136.96903 A 150 59.75681 95.57111 0 1 -49.24255 -29.8953" />
    <path d="M 578.36096 -185.37556 L 578.36096 39.08571" />
    <path d="M 582.32426 -185.70582 L 582.32426 38.75545" />
    <path d="M -24.8149 -32.703 L -20.97016 -34.86741" />
    <path d="M -21.00862 -34.8472 L 550.48396 -313.63348" />
    <path d="M 550.40706 -313.60174 L 558.08138 -316.19113" />
    <path d="M 558.00479 -316.17108 A 147 58.56167 95.57111 0 1 588.6536 -299.48937 L 586.6939 -302.39561" />
    <path d="M 588.6536 -299.48937 A 147 58.56167 95.57111 0 1 610.49068 -199.446 L 610.49068 25.01527" />
    <path d="M 554.4746 -247.64158 A 78 31.07354 95.57111 0 1 582.32426 -185.70582" />
    <path d="M 550.56085 -246.32683 L 554.39801 -247.62152" />
    <path d="M -21.00862 32.49118 L 550.48396 -246.29509" />
    <path d="M -22.96946 33.59359 L -21.04709 32.51139" />
    <path d="M -52.84892 124.14521 A 78 31.07354 95.57111 0 1 -27.62033 37.37576 A 78 31.07354 95.57111 0 1 -23.00789 33.61667" />
    <path d="M -52.84892 348.60648 L -52.84892 124.14521" />
    <path d="M 238.88938 193.94416 A 1.65 0.35992 360 0 1 238.87187 193.99645 L 241.06161 190.74363" />
    <path d="M 238.87187 193.99645 A 1.65 0.35992 360 0 1 235.60688 193.99645 L 233.41714 190.74363" />
    <path d="M 235.60688 193.99645 A 1.65 0.35992 360 0 1 235.58938 193.94416 A 1.65 0.35992 360 0 1 235.73311 193.79723" />
    <path d="M -477.49838 284.43566 L -477.49838 278.0972" />
    <path d="M -475.3002 285.4218 L -475.57493 285.58215" />
    <path d="M -475.3002 285.4218 L -475.3002 276.81419" />
    <path d="M 55.37148 26.54883 L -46.74942 76.36558" />
    <path d="M -97.55157 101.14796 L -475.3002 285.4218" />
    <path d="M 55.37148 26.54883 L 55.37148 17.94123" />
    <path d="M 56.74313 25.93243 L 55.37148 26.54883" />
    <path d="M 56.74313 25.93243 L 56.74313 17.32483" />
    <path d="M 56.74313 25.93243 A 50 10.90676 360 0 1 121.42636 21.04441 L 121.42636 12.43681" />
    <path d="M 450.06622 53.10051 L 121.42636 21.04441" />
    <path d="M 450.06622 53.10051 A 50 10.90676 360 0 1 475.57493 58.74144" />
    <path d="M 275.62819 176.02218 A 1.65 0.35992 360 0 1 275.61068 176.07447 L 277.80042 172.82165" />
    <path d="M 275.61068 176.07447 A 1.65 0.35992 360 0 1 272.34569 176.07447 L 270.15595 172.82165" />
    <path d="M 272.34569 176.07447 A 1.65 0.35992 360 0 1 272.32819 176.02218 A 1.65 0.35992 360 0 1 272.47192 175.87526" />
    <path d="M -28.86934 38.68206 A 75 29.8784 95.57111 0 1 -25.66966 36.23401 L -23.00789 33.61667" />
    <path d="M -25.66966 36.23401 L -23.74729 35.1518 L -21.04709 32.51139" />
    <path d="M -23.74729 35.1518 L 547.74529 -243.63447 L 550.48396 -246.29509" />
    <path d="M 547.74529 -243.63447 L 551.58245 -244.92917 L 554.39801 -247.62152" />
    <path d="M 551.58245 -244.92917 A 75 29.8784 95.57111 0 1 555.02636 -245.08632 A 75 29.8784 95.57111 0 1 578.36096 -185.37556 L 582.32426 -185.70582" />
    <path d="M 555.41961 -319.41775 L 542.63917 -320.66438" />
    <path d="M 555.41961 -319.41775 A 150 59.75681 95.57111 0 1 562.30744 -319.73205" />
    <path d="M 547.74529 -316.82837 L 534.96485 -318.07499" />
    <path d="M 547.74529 -316.82837 L 555.41961 -319.41775 L 558.08138 -316.19113" />
    <path d="M -23.74729 -38.04209 L -36.52773 -39.28872" />
    <path d="M -23.74729 -38.04209 L 547.74529 -316.82837 L 550.48396 -313.63348" />
    <path d="M -27.59204 -35.87768 L -40.37248 -37.12431" />
    <path d="M -27.59204 -35.87768 L -23.74729 -38.04209 L -20.97016 -34.86741" />
    <path d="M -84.97864 138.21565 A 150 59.75681 95.57111 0 1 -27.59204 -35.87768 L -24.77648 -32.72608" />
    <path d="M 232.67493 189.59526 A 5 1.09068 180 0 0 232.23938 190.04048 A 5 1.09068 180 1 0 242.23938 190.04048" />
    <path d="M 269.41374 171.67328 A 5 1.09068 180 0 0 268.97819 172.11851 A 5 1.09068 180 1 0 278.97819 172.11851" />
    <path d="M 232.67493 174.95648 A 5 1.09068 360 0 1 242.23938 175.4017 L 242.23938 190.04048" />
    <path d="M 242.23938 175.4017 A 5 1.09068 360 0 1 232.23938 175.4017 L 232.23938 190.04048" />
    <path d="M 232.23938 175.4017 A 5 1.09068 360 0 1 232.67493 174.95648" />
    <path d="M 269.41374 157.0345 A 5 1.09068 360 0 1 278.97819 157.47973 L 278.97819 172.11851" />
    <path d="M 278.97819 157.47973 A 5 1.09068 360 0 1 268.97819 157.47973 L 268.97819 172.11851" />
    <path d="M 268.97819 157.47973 A 5 1.09068 360 0 1 269.41374 157.0345" />
    <path d="M 578.36096 -185.37556 L 565.58053 -186.62218" />
    <path d="M 450.06622 53.10051 L 450.06622 44.49291" />
    <path d="M -84.97864 138.21565 L -97.75907 136.96903" />
    <path d="M -645.71065 286.77085 L -645.71065 321.90391" />
    <path d="M 645.71065 48.94514 L 645.71065 84.07821" />
    <path d="M 235.58938 201.7515 L 235.58938 193.97044" />
    <path d="M 272.32819 183.82953 L 272.32819 176.04847" />
</svg>