<svg version="1.1" xmlns="http://www.w3.org/2000/svg" viewBox="-646.7274049157536 -35.53202420239433 1293.454809831507 98.54786606170822" fill="none" stroke="black" stroke-width="0.6%" vector-effect="non-scaling-stroke">
    <path d="M -556.96296 19.14743 L -556.96296 55.12624 L -137.04002 61.56758 L -137.04002 25.58876 A 150 5.14513 180 0 0 57.01171 23.2831 L 61.12693 22.99233 L 632.6588 -20.84512 L 639.2539 -21.45036 A 150 5.14513 180 0 0 645.7274 -22.94556 A 150 5.14513 180 0 0 556.96296 -27.64243 L 137.04002 -34.08376 A 150 5.14513 180 0 0 -57.01171 -31.7781 L -61.12693 -31.48732 L -632.6588 12.35012 L -639.2539 12.95536 A 150 5.14513 180 0 0 -645.7274 14.45056 A 150 5.14513 180 0 0 -556.96296 19.14743 L -137.04002 25.58876" />
    <path d="M -645.7274 50.42937 A 150 5.14513 180 0 0 -556.96296 55.12624" />
    <path d="M -593.32542 13.43382 A 102 3.49869 180 0 0 -597.7274 14.45056 A 102 3.49869 180 0 0 -537.36758 17.64443 L -117.44464 24.08576 A 102 3.49869 180 0 0 14.51054 22.51791 L 17.30888 22.32019 L 588.84075 -21.51726 L 593.32542 -21.92882 A 102 3.49869 180 0 0 597.7274 -22.94556 A 102 3.49869 180 0 0 537.36758 -26.13943 L 117.44464 -32.58076 A 102 3.49869 180 0 0 -14.51054 -31.01291 L -17.30888 -30.81518 L -588.84075 13.02226 L -593.32542 13.43382 Z" />
    <path d="M 57.01171 59.26192 L 57.01171 23.2831" />
    <path d="M -137.04002 61.56758 A 150 5.14513 180 0 0 57.01171 59.26192 L 61.12693 58.97114 L 61.12693 22.99233" />
    <path d="M 61.12693 58.97114 L 632.6588 15.13369 L 632.6588 -20.84512" />
    <path d="M 632.6588 15.13369 L 639.2539 14.52846 L 639.2539 -21.45036" />
    <path d="M 639.2539 14.52846 A 150 5.14513 180 0 0 645.7274 13.03326" />
    <path d="M -593.32542 13.70328 L -593.32542 13.43382" />
    <path d="M -588.84075 13.21782 L -588.84075 13.02226" />
    <path d="M -17.30888 -30.64714 L -17.30888 -30.81518" />
    <path d="M -14.51054 -30.8559 L -14.51054 -31.01291" />
    <path d="M 117.44464 -32.50561 L 117.44464 -32.58076" />
    <path d="M 537.36758 -26.06413 L 537.36758 -26.13943" />
    <path d="M -536.55111 17.5818 L -536.55111 17.65695" />
    <path d="M -536.55111 17.5818 L -116.62817 24.02314 A 100 3.43009 180 0 0 12.73965 22.48603 L 15.48313 22.29218 L 587.015 -21.54527 L 591.41174 -21.94876 A 100 3.43009 180 0 0 595.7274 -22.94556 A 100 3.43009 180 0 0 536.55111 -26.0768 L 116.62817 -32.51814 A 100 3.43009 180 0 0 -12.73965 -30.98103 L -15.48313 -30.78718 L -587.015 13.05027 L -591.41174 13.45376 A 100 3.43009 180 0 0 -595.7274 14.45056 L -595.7274 15.14" />
    <path d="M -116.62817 24.09814 L -116.62817 24.02314" />
    <path d="M 12.73965 22.62873 L 12.73965 22.48603" />
    <path d="M 15.48313 22.44919 L 15.48313 22.29218" />
    <path d="M 587.015 -21.37722 L 587.015 -21.54527" />
    <path d="M 591.41174 -21.7532 L 591.41174 -21.94876" />
    <path d="M -595.7274 14.45056 A 100 3.43009 180 0 0 -536.55111 17.5818" />
    <path d="M 245.54707 1.28501 L 241.58373 1.33694 L 241.58373 -6.2914 L 245.54707 -6.34333" />
    <path d="M 247.18089 1.1597 L 245.54707 1.28501 L 245.54707 -6.34333" />
    <path d="M 227.28955 1.00495 L 228.80346 1.1409 L 228.80346 -6.48744 L 227.28955 -6.62339" />
    <path d="M 241.58373 1.33694 L 228.80346 1.1409" />
    <path d="M -477.51392 13.08668 A 50 1.71504 180 0 0 -479.67175 13.58508 A 50 1.71504 180 0 0 -450.08361 15.1507 L -121.44826 20.19175 A 50 1.71504 180 0 0 -56.76435 19.42319 L -55.39261 19.32627 L 227.28955 -2.35593" />
    <path d="M -475.31555 12.88494 L -477.51392 13.08668" />
    <path d="M 55.39261 -27.82127 L -475.31555 12.88494" />
    <path d="M 56.76435 -27.91819 L 55.39261 -27.82127" />
    <path d="M 121.44826 -28.68674 A 50 1.71504 180 0 0 56.76435 -27.91819" />
    <path d="M 247.18089 -3.88162 L 264.02965 -5.17395" />
    <path d="M 283.92099 -6.69965 L 475.31555 -21.37993 L 477.51392 -21.58168 A 50 1.71504 180 0 0 479.67175 -22.08008 A 50 1.71504 180 0 0 450.08361 -23.6457 L 278.97594 -26.27038" />
    <path d="M 236.59895 -26.92041 L 121.44826 -28.68674" />
    <path d="M 265.54356 -1.67713 L 264.02965 -1.81307" />
    <path d="M 265.54356 -1.67713 L 278.32383 -1.48109 L 282.28717 -1.53301" />
    <path d="M 283.92099 -1.65833 L 282.28717 -1.53301" />
    <path d="M 247.18089 1.1597 L 247.18089 -6.56301" />
    <path d="M 247.1812 -6.63117 A 13 5.30396 90.87881 0 1 250.29532 -18.40756 A 13 5.30396 90.87881 0 1 252.23027 -19.70034" />
    <path d="M 252.25988 -19.70524 L 252.45729 -19.73207" />
    <path d="M 252.48692 -19.73522 L 276.98114 -21.61397" />
    <path d="M 277.04036 -21.615 L 277.43473 -21.59851" />
    <path d="M 277.49382 -21.59253 A 13 5.30396 90.87881 0 1 282.28685 -9.32383" />
    <path d="M 282.28717 -9.25572 L 282.28717 -1.53301" />
    <path d="M 283.92099 -9.28668 L 283.92099 -1.65833" />
    <path d="M 277.52335 -25.60127 A 17 6.93595 90.87881 0 1 280.31359 -23.78036 L 278.16304 -26.49744" />
    <path d="M 280.31359 -23.78036 A 17 6.93595 90.87881 0 1 283.92102 -9.26676" />
    <path d="M 276.93326 -25.61024 L 277.57116 -25.59807" />
    <path d="M 252.48692 -23.73287 L 276.98114 -25.61162" />
    <path d="M 252.19167 -23.69552 L 252.51086 -23.73528" />
    <path d="M 245.54704 -6.32342 A 17 6.93595 90.87881 0 1 252.2156 -23.69907" />
    <path d="M 262.71395 -17.77348 A 13 5.30396 90.87881 0 1 264.02933 -9.60389" />
    <path d="M 264.02965 -9.53577 L 264.02965 -1.81307" />
    <path d="M 227.28952 -6.60347 A 17 6.93595 90.87881 0 1 231.36346 -22.27675 L 232.2346 -23.31057" />
    <path d="M 227.28955 1.00495 L 227.28955 -6.62339" />
    <path d="M 241.58373 -6.2914 L 228.80346 -6.48744 A 20 8.15994 90.87881 0 1 232.2346 -22.90431" />
    <path d="M -477.51392 14.08348 L -477.51392 13.08668" />
    <path d="M -475.31555 14.28522 L -475.31555 12.88494" />
    <path d="M 55.39261 -19.00646 L -399.95692 15.91961" />
    <path d="M 55.39261 -19.00646 L 55.39261 -27.82127" />
    <path d="M 56.76435 -19.10338 L 55.39261 -19.00646" />
    <path d="M 56.76435 -19.10338 L 56.76435 -27.91819" />
    <path d="M 56.76435 -19.10338 A 50 1.71504 0 0 1 121.44826 -19.87193 L 121.44826 -28.68674" />
    <path d="M 399.95692 -15.5998 L 283.03499 -17.3933" />
    <path d="M 262.73912 -17.70463 L 261.97005 -17.71643" />
    <path d="M 229.15342 -18.21981 L 121.44826 -19.87193" />
    <path d="M 265.54356 -9.39983 L 264.02933 -9.60389" />
    <path d="M 265.54356 -9.39983 L 265.54356 -1.67713" />
    <path d="M 278.32383 -9.20379 L 278.32383 -1.48109" />
    <path d="M 278.32383 -9.20379 L 265.54356 -9.39983" />
    <path d="M 278.32383 -9.20379 L 282.28685 -9.32383" />
    <path d="M 241.58373 -6.2914 A 20 8.15994 90.87881 0 1 249.4291 -26.73335 L 236.64883 -26.92939 L 236.96802 -26.96915 L 261.46225 -28.8479" />
    <path d="M 249.4291 -26.73335 L 252.2156 -23.69907" />
    <path d="M 249.17201 -16.63472 A 10 4.07997 90.87881 0 1 249.55087 -16.75216 L 249.74829 -16.779 L 274.24251 -18.65774 L 274.63688 -18.64125 L 274.12903 -18.64904" />
    <path d="M 249.55087 -16.75216 L 252.23027 -19.70034" />
    <path d="M 249.74829 -16.779 L 252.45729 -19.73207" />
    <path d="M 274.24251 -18.65774 L 276.98114 -21.61397" />
    <path d="M 274.63688 -18.64125 L 277.43473 -21.59851" />
    <path d="M 274.63688 -18.64125 A 10 4.07997 90.87881 0 1 278.32383 -9.20379" />
    <path d="M 274.88041 -28.63969 L 277.57116 -25.59807" />
    <path d="M 274.88041 -28.63969 A 20 8.15994 90.87881 0 1 278.16304 -26.49744" />
    <path d="M 274.24251 -28.65186 L 276.98114 -25.61162" />
    <path d="M 274.24251 -28.65186 L 274.88041 -28.63969" />
    <path d="M 249.74829 -26.77311 L 252.51086 -23.73528" />
    <path d="M 249.74829 -26.77311 L 274.24251 -28.65186 L 261.46225 -28.8479" />
    <path d="M 249.4291 -26.73335 L 249.74829 -26.77311 L 236.96802 -26.96915" />
    <path d="M 263.38377 -17.82486 A 10 4.07997 90.87881 0 1 263.42251 -17.77658 A 10 4.07997 90.87881 0 1 265.54356 -9.39983" />
    <path d="M 234.75432 -26.05065 A 20 8.15994 90.87881 0 1 236.64883 -26.92939" />
    <path d="M 233.38921 -10.80095 C 233.36 -10.88 233.34 -10.97 233.30885 -11.04753 C 233.28 -11.13 233.26 -11.21 233.23065 -11.29415 C 233.2 -11.38 233.18 -11.46 233.15467 -11.54084 C 233.13 -11.62 233.11 -11.71 233.08096 -11.7876 C 233.06 -11.87 233.03 -11.95 233.00961 -12.03445 C 232.99 -12.12 232.96 -12.2 232.94069 -12.2814 C 232.92 -12.36 232.9 -12.45 232.87427 -12.52847 C 232.85 -12.61 232.83 -12.69 232.81045 -12.77564 C 232.79 -12.86 232.77 -12.94 232.74931 -13.02292 C 232.73 -13.11 232.71 -13.19 232.69095 -13.27029 C 232.67 -13.35 232.65 -13.44 232.63548 -13.51775 C 232.62 -13.6 232.6 -13.68 232.58299 -13.76528 C 232.57 -13.85 232.55 -13.93 232.53362 -14.01286 C 232.52 -14.1 232.5 -14.18 232.48748 -14.26045 C 232.47 -14.34 232.46 -14.43 232.4447 -14.50804 C 232.43 -14.59 232.42 -14.67 232.40541 -14.75558 C 232.4 -14.8 232.39 -14.84 232.38582 -14.88839 C 232.38 -14.93 232.37 -14.98 232.3673 -15.02115 C 232.36 -15.07 232.36 -15.11 232.34987 -15.15386 C 232.34 -15.2 232.34 -15.24 232.33356 -15.28652 C 232.33 -15.33 232.32 -15.37 232.31839 -15.41916 C 232.31 -15.46 232.31 -15.51 232.30438 -15.55176 C 232.3 -15.6 232.3 -15.64 232.29156 -15.68433 C 232.29 -15.73 232.28 -15.77 232.27996 -15.81687 C 232.28 -15.86 232.27 -15.91 232.26961 -15.94939 C 232.27 -15.99 232.26 -16.04 232.26053 -16.08187 C 232.26 -16.13 232.26 -16.17 232.25275 -16.21433 C 232.25 -16.26 232.25 -16.3 232.24631 -16.34674 C 232.24 -16.44 232.24 -16.52 232.23758 -16.61146 C 232.24 -16.7 232.23 -16.79 232.2346 -16.87596" />
    <path d="M 242.2346 -21.63806 C 242.23 -21.61 242.23 -21.59 242.23373 -21.56164 C 242.23 -21.54 242.23 -21.51 242.23114 -21.48435 C 242.23 -21.46 242.23 -21.43 242.22686 -21.40621 C 242.23 -21.38 242.22 -21.35 242.22094 -21.32726 C 242.22 -21.3 242.22 -21.27 242.21342 -21.24754 C 242.21 -21.22 242.21 -21.19 242.20434 -21.16709 C 242.2 -21.14 242.2 -21.11 242.19374 -21.08595 C 242.19 -21.06 242.19 -21.03 242.18167 -21.00415 C 242.17 -20.95 242.16 -20.89 242.15188 -20.83129 C 242.14 -20.77 242.13 -20.71 242.11622 -20.65598 C 242.1 -20.6 242.09 -20.54 242.07507 -20.47842 C 242.06 -20.42 242.05 -20.36 242.02877 -20.29882 C 242.01 -20.24 242 -20.18 241.97768 -20.11739 C 241.96 -20.06 241.94 -20 241.92213 -19.93433 C 241.9 -19.87 241.88 -19.81 241.86246 -19.74985 C 241.84 -19.69 241.82 -19.63 241.79898 -19.56417 C 241.78 -19.5 241.75 -19.44 241.72974 -19.37131 C 241.71 -19.31 241.68 -19.24 241.65697 -19.1773 C 241.63 -19.11 241.61 -19.05 241.58096 -18.98226 C 241.56 -18.92 241.53 -18.85 241.50194 -18.7863 C 241.48 -18.72 241.45 -18.66 241.42015 -18.58953 C 241.39 -18.52 241.36 -18.46 241.33582 -18.39205 C 241.31 -18.33 241.28 -18.26 241.24915 -18.19395 C 241.22 -18.13 241.19 -18.06 241.16035 -17.99533 C 241.13 -17.93 241.1 -17.86 241.06958 -17.79626 C 241.04 -17.73 241.01 -17.66 240.97703 -17.59683 C 240.91 -17.46 240.85 -17.33 240.7872 -17.19713 C 240.66 -16.93 240.53 -16.66 240.39248 -16.39599 C 239.85 -15.33 239.29 -14.26 238.71628 -13.19293 C 238.28 -12.37 237.84 -11.55 237.41633 -10.73917" />
    <path d="M 233.38921 -10.80095 A 5 0.1715 180 0 0 237.41633 -10.73917" />
    <path d="M 232.67022 -25.97175 A 5 0.1715 0 0 1 242.2346 -25.90174 L 242.2346 -21.63806" />
    <path d="M 242.2346 -25.90174 A 5 0.1715 0 0 1 232.2346 -25.90174 L 232.2346 -16.87596" />
    <path d="M 232.2346 -25.90174 A 5 0.1715 0 0 1 232.67022 -25.97175" />
    <path d="M 269.41156 -28.78988 A 5 0.1715 0 0 1 278.97594 -28.71986 L 278.97594 -25.4704" />
    <path d="M 278.97594 -28.71986 A 5 0.1715 0 0 1 275.33916 -28.55485" />
    <path d="M 268.9894 -28.73244 A 5 0.1715 0 0 1 269.41156 -28.78988" />
    <path d="M 450.08361 -19.4446 L 450.08361 -23.6457" />
    <path d="M -645.7274 14.45056 L -645.7274 50.42937" />
    <path d="M 645.7274 -22.94556 L 645.7274 13.03326" />
    <path d="M 595.7274 -22.94556 L 595.7274 -22.25612" />
</svg>