<svg version="1.1" xmlns="http://www.w3.org/2000/svg" viewBox="-861.2754264185693 -24.678906896408645 1722.5508528371386 49.35781379281729" fill="none" stroke="black" stroke-width="0.6%" vector-effect="non-scaling-stroke">
    <path d="M -804.99854 19.7097 L -89.46383 23.56513 A 100 1.07758 180 0 0 41.71645 23.14282 L 44.70113 23.08325 L 849.71726 5.73465 L 854.61728 5.61005 A 100 1.07758 180 0 0 860.27543 5.25272" />
    <path d="M -860.27543 18.74589 A 100 1.07758 180 0 0 -804.99854 19.7097" />
    <path d="M -804.99854 -4.28891 L -804.99854 19.7097" />
    <path d="M -804.99854 -4.28891 L -89.46383 -0.43347 A 100 1.07758 180 0 0 41.71645 -0.85579 L 44.70113 -0.91536 L 849.71726 -18.26396 L 854.61728 -18.38856 A 100 1.07758 180 0 0 860.27543 -18.74589 L 860.27543 5.25272" />
    <path d="M -89.46383 23.56513 L -89.46383 -0.43347" />
    <path d="M 41.71645 23.14282 L 41.71645 -0.85579" />
    <path d="M 44.70113 23.08325 L 44.70113 -0.91536" />
    <path d="M 849.71726 5.73465 L 849.71726 -18.26396" />
    <path d="M 854.61728 5.61005 L 854.61728 -18.38856" />
    <path d="M 860.27543 -18.74589 A 100 1.07758 180 0 0 804.99854 -19.7097 L 89.46383 -23.56513 A 100 1.07758 180 0 0 -41.71645 -23.14282 L -44.70113 -23.08325 L -849.71726 -5.73465 L -854.61728 -5.61005 A 100 1.07758 180 0 0 -860.27543 -5.25272 L -860.27543 18.74589" />
    <path d="M -860.27543 -5.25272 A 100 1.07758 180 0 0 -804.99854 -4.28891" />
    <path d="M -740.36387 -5.67233 A 50 0.53879 180 0 0 -743.19295 -5.49366 A 50 0.53879 180 0 0 -715.55451 -5.01175 L -89.46163 -1.63825 A 50 0.53879 180 0 0 -23.87149 -1.84941 L -22.37915 -1.87919 L 737.91387 -18.26398 L 740.36387 -18.32628 A 50 0.53879 180 0 0 743.19295 -18.50495 A 50 0.53879 180 0 0 715.55451 -18.98685 L 89.46163 -22.36036 A 50 0.53879 180 0 0 23.87149 -22.1492 L 22.37915 -22.11942 L -737.91387 -5.73463 L -740.36387 -5.67233 Z" />
    <path d="M -740.36387 -5.31499 L -740.36387 -5.67233" />
    <path d="M -737.91387 -5.2527 L -737.91387 -5.73463" />
    <path d="M 22.37915 -13.29993 L -432.8858 -3.48868" />
    <path d="M 22.37915 -13.29993 L 22.37915 -22.11942" />
    <path d="M 23.87149 -13.32971 L 22.37915 -13.29993" />
    <path d="M 23.87149 -13.32971 L 23.87149 -22.1492" />
    <path d="M 23.87149 -13.32971 A 50 0.53879 360 0 1 89.46163 -13.54087 L 89.46163 -22.36036" />
    <path d="M 432.8858 -11.69044 L 89.46163 -13.54087" />
    <path d="M 715.55451 -17.78212 L 715.55451 -18.98685" />
</svg>