<svg version="1.1" xmlns="http://www.w3.org/2000/svg" viewBox="-646.7274049157536 -26.775251332749423 1293.4548098315072 76.56602526740039" fill="none" stroke="black" stroke-width="0.6%" vector-effect="non-scaling-stroke">
    <path d="M -556.96296 32.34921 L -137.04002 37.8846 A 150 4.42149 180 0 0 57.01171 35.90322 L 61.12693 35.65334 L 632.6588 -2.01856 L 639.2539 -2.53868 A 150 4.42149 180 0 0 645.7274 -3.82358" />
    <path d="M -556.96296 20.35443 L -137.04002 25.88981 A 150 4.42149 180 0 0 57.01171 23.90843 L 61.12693 23.65856 L 632.6588 -14.01335 L 639.2539 -14.53346 A 150 4.42149 180 0 0 645.7274 -15.81837 A 150 4.42149 180 0 0 556.96296 -19.85464 L 278.97594 -23.51904" />
    <path d="M 57.01171 35.90322 L 57.01171 23.90843" />
    <path d="M 61.12693 35.65334 L 61.12693 23.65856" />
    <path d="M 632.6588 -2.01856 L 632.6588 -14.01335" />
    <path d="M 639.2539 -2.53868 L 639.2539 -14.53346" />
    <path d="M 248.68821 -23.9183 L 137.04002 -25.39003 A 150 4.42149 180 0 0 -57.01171 -23.40865 L -61.12693 -23.15877 L -632.6588 14.51313 L -639.2539 15.03325 A 150 4.42149 180 0 0 -645.7274 16.31815 A 150 4.42149 180 0 0 -556.96296 20.35443" />
    <path d="M -645.7274 28.31294 A 150 4.42149 180 0 0 -556.96296 32.34921 L -556.96296 20.35443" />
    <path d="M -593.32542 15.67598 L -593.32542 15.44442 A 102 3.00662 180 0 0 -597.7274 16.31815 A 102 3.00662 180 0 0 -537.36758 19.06282 L -117.44464 24.59821 A 102 3.00662 180 0 0 14.51054 23.25087 L 17.30888 23.08095 L 588.84075 -14.59096 L 593.32542 -14.94463 A 102 3.00662 180 0 0 597.7274 -15.81837 A 102 3.00662 180 0 0 537.36758 -18.56304 L 278.97594 -21.96913" />
    <path d="M -588.84075 15.25879 L -588.84075 15.09074 L -593.32542 15.44442" />
    <path d="M -17.30888 -22.43676 L -17.30888 -22.58117 L -588.84075 15.09074" />
    <path d="M -14.51054 -22.61616 L -14.51054 -22.75109 L -17.30888 -22.58117" />
    <path d="M 117.44464 -24.09842 A 102 3.00662 180 0 0 -14.51054 -22.75109" />
    <path d="M 235.18604 -22.54637 L 117.44464 -24.09842" />
    <path d="M -536.55111 19.009 L -536.55111 19.07358" />
    <path d="M -536.55111 32.61828 L -536.55111 42.99857 L -116.62817 48.53396 A 100 2.94766 180 0 0 12.73965 47.21304 L 12.73965 37.4173" />
    <path d="M -536.55111 19.009 L -116.62817 24.54439 A 100 2.94766 180 0 0 12.73965 23.22347 L 15.48313 23.05688 L 587.015 -14.61502 L 591.41174 -14.96176 A 100 2.94766 180 0 0 595.7274 -15.81837 A 100 2.94766 180 0 0 536.55111 -18.50922 L 278.97594 -21.90455" />
    <path d="M -116.62817 48.53396 L -116.62817 38.10292" />
    <path d="M -116.62817 24.60884 L -116.62817 24.54439" />
    <path d="M -591.41174 15.46155 A 100 2.94766 180 0 0 -595.7274 16.31815 A 100 2.94766 180 0 0 -536.55111 19.009" />
    <path d="M -595.7274 40.30772 A 100 2.94766 180 0 0 -536.55111 42.99857" />
    <path d="M -587.015 15.11481 L -591.41174 15.46155" />
    <path d="M -15.48313 -22.5571 L -587.015 15.11481" />
    <path d="M -12.73965 -22.72369 L -15.48313 -22.5571" />
    <path d="M 116.62817 -24.04461 A 100 2.94766 180 0 0 -12.73965 -22.72369" />
    <path d="M 235.0856 -22.48311 L 116.62817 -24.04461" />
    <path d="M 245.54707 5.00428 L 241.58373 5.04891 L 241.58373 -2.58061 L 245.54707 -2.62524" />
    <path d="M 247.18089 4.89659 L 245.54707 5.00428 L 245.54707 -2.62524" />
    <path d="M 227.28955 4.76361 L 228.80346 4.88044 L 228.80346 -2.74908 L 227.28955 -2.86591" />
    <path d="M 241.58373 5.04891 L 228.80346 4.88044" />
    <path d="M -477.51392 15.1461 A 50 1.47383 180 0 0 -479.67175 15.5744 A 50 1.47383 180 0 0 -450.08361 16.91982 L -121.44826 21.25187 A 50 1.47383 180 0 0 -56.76435 20.59141 L -55.39261 20.50811 L 227.28955 1.87542" />
    <path d="M -475.31555 14.97273 L -477.51392 15.1461" />
    <path d="M 55.39261 -20.00833 L -475.31555 14.97273" />
    <path d="M 56.76435 -20.09162 L 55.39261 -20.00833" />
    <path d="M 121.44826 -20.75208 A 50 1.47383 180 0 0 56.76435 -20.09162" />
    <path d="M 247.18089 0.56431 L 264.02965 -0.54626" />
    <path d="M 283.92099 -1.85738 L 475.31555 -14.47294 L 477.51392 -14.64631 A 50 1.47383 180 0 0 479.67175 -15.07462 A 50 1.47383 180 0 0 450.08361 -16.42004 L 281.02037 -18.64862" />
    <path d="M 232.04818 -19.29417 L 121.44826 -20.75208" />
    <path d="M 265.54356 2.45875 L 264.02965 2.34193" />
    <path d="M 265.54356 2.45875 L 278.32383 2.62722 L 282.28717 2.5826" />
    <path d="M 283.92099 2.4749 L 282.28717 2.5826" />
    <path d="M 12.73965 23.3461 L 12.73965 23.22347" />
    <path d="M 12.73965 47.21304 L 15.48313 47.04646 L 15.48313 37.35673" />
    <path d="M 15.48313 47.04646 L 587.015 9.37455 L 587.015 0.99" />
    <path d="M 587.015 9.37455 L 591.41174 9.02781 L 591.41174 0.70019" />
    <path d="M 591.41174 9.02781 A 100 2.94766 180 0 0 595.7274 8.1712" />
    <path d="M 15.48313 23.19181 L 15.48313 23.05688" />
    <path d="M 587.015 -14.47061 L 587.015 -14.61502" />
    <path d="M 591.41174 -14.79371 L 591.41174 -14.96176" />
    <path d="M 247.18089 4.89659 L 247.18089 -2.8273" />
    <path d="M 247.1812 -2.89547 A 13 5.30478 90.75522 0 1 250.26935 -14.6093 A 13 5.30478 90.75522 0 1 252.23027 -15.91213" />
    <path d="M 252.25988 -15.91671 L 252.45729 -15.94141" />
    <path d="M 252.48692 -15.94424 L 276.98114 -17.55875" />
    <path d="M 277.04036 -17.55915 L 277.43473 -17.53839" />
    <path d="M 277.49382 -17.53177 A 13 5.30478 90.75522 0 1 282.28685 -5.20942" />
    <path d="M 282.28717 -5.1413 L 282.28717 2.5826" />
    <path d="M 283.92099 -5.15461 L 283.92099 2.4749" />
    <path d="M 277.52335 -21.54082 A 17 6.93701 90.75522 0 1 280.28192 -19.72958 L 278.12578 -22.44189" />
    <path d="M 280.28192 -19.72958 A 17 6.93701 90.75522 0 1 283.92102 -5.1347" />
    <path d="M 276.93326 -21.55615 L 277.57116 -21.53709" />
    <path d="M 252.48692 -19.94251 L 276.98114 -21.55702" />
    <path d="M 252.19167 -19.90834 L 252.51086 -19.94466" />
    <path d="M 245.54704 -2.60532 A 17 6.93701 90.75522 0 1 252.2156 -19.91163" />
    <path d="M 262.6404 -13.83142 A 13 5.30478 90.75522 0 1 264.02933 -5.45009" />
    <path d="M 264.02965 -5.38197 L 264.02965 2.34193" />
    <path d="M 227.28952 -2.84599 A 17 6.93701 90.75522 0 1 231.3295 -18.43748 L 232.2346 -19.51639" />
    <path d="M 227.28955 4.76361 L 227.28955 -2.86591" />
    <path d="M 241.58373 -2.58061 L 228.80346 -2.74908 A 20 8.16119 90.75522 0 1 232.2346 -19.13142" />
    <path d="M -477.51392 16.0027 L -477.51392 15.1461" />
    <path d="M -475.31555 16.17607 L -475.31555 14.97273" />
    <path d="M 55.39261 -11.19216 L -384.26556 17.78743" />
    <path d="M 55.39261 -11.19216 L 55.39261 -20.00833" />
    <path d="M 56.76435 -11.27546 L 55.39261 -11.19216" />
    <path d="M 56.76435 -11.27546 L 56.76435 -20.09162" />
    <path d="M 56.76435 -11.27546 A 50 1.47383 360 0 1 121.44826 -11.93592 L 121.44826 -20.75208" />
    <path d="M 384.26556 -8.47148 L 283.63917 -9.79793" />
    <path d="M 263.63342 -10.06164 L 248.18196 -10.26532" />
    <path d="M 228.05262 -10.53067 L 121.44826 -11.93592" />
    <path d="M 265.54356 -5.26514 L 264.02933 -5.45009" />
    <path d="M 265.54356 -5.26514 L 265.54356 2.45875" />
    <path d="M 278.32383 -5.09667 L 278.32383 2.62722" />
    <path d="M 278.32383 -5.09667 L 265.54356 -5.26514" />
    <path d="M 278.32383 -5.09667 L 282.28685 -5.20942" />
    <path d="M 241.58373 -2.58061 A 20 8.16119 90.75522 0 1 249.4291 -22.94098 L 236.64883 -23.10945 L 236.96802 -23.14577 L 261.46225 -24.76028" />
    <path d="M 249.4291 -22.94098 L 252.2156 -19.91163" />
    <path d="M 249.15001 -12.83429 A 10 4.0806 90.75522 0 1 249.55087 -12.95694 L 249.74829 -12.98165 L 274.24251 -14.59616 L 274.63688 -14.5754 L 274.04582 -14.58319" />
    <path d="M 249.55087 -12.95694 L 252.23027 -15.91213" />
    <path d="M 249.74829 -12.98165 L 252.45729 -15.94141" />
    <path d="M 274.24251 -14.59616 L 276.98114 -17.55875" />
    <path d="M 274.63688 -14.5754 L 277.43473 -17.53839" />
    <path d="M 274.63688 -14.5754 A 10 4.0806 90.75522 0 1 278.32383 -5.09667" />
    <path d="M 274.88041 -24.57275 L 277.57116 -21.53709" />
    <path d="M 274.88041 -24.57275 A 20 8.16119 90.75522 0 1 278.12578 -22.44189" />
    <path d="M 274.24251 -24.59181 L 276.98114 -21.55702" />
    <path d="M 274.24251 -24.59181 L 274.88041 -24.57275" />
    <path d="M 249.74829 -22.9773 L 252.51086 -19.94466" />
    <path d="M 249.74829 -22.9773 L 274.24251 -24.59181 L 261.46225 -24.76028" />
    <path d="M 249.4291 -22.94098 L 249.74829 -22.9773 L 236.96802 -23.14577" />
    <path d="M 263.25121 -13.87168 A 10 4.0806 90.75522 0 1 263.40388 -13.68967 A 10 4.0806 90.75522 0 1 265.54356 -5.26514" />
    <path d="M 234.80229 -22.2869 A 20 8.16119 90.75522 0 1 236.64883 -23.10945" />
    <path d="M 233.38921 -7.07044 C 233.36 -7.15 233.34 -7.23 233.30885 -7.31659 C 233.28 -7.4 233.26 -7.48 233.23065 -7.56275 C 233.2 -7.64 233.18 -7.73 233.15467 -7.80897 C 233.13 -7.89 233.11 -7.97 233.08096 -8.05525 C 233.06 -8.14 233.03 -8.22 233.00961 -8.30161 C 232.99 -8.38 232.96 -8.47 232.94069 -8.54807 C 232.92 -8.63 232.9 -8.71 232.87427 -8.79461 C 232.85 -8.88 232.83 -8.96 232.81045 -9.04126 C 232.79 -9.12 232.77 -9.21 232.74931 -9.28799 C 232.73 -9.37 232.71 -9.45 232.69095 -9.53481 C 232.67 -9.62 232.65 -9.7 232.63548 -9.78171 C 232.62 -9.86 232.6 -9.95 232.58299 -10.02866 C 232.57 -10.11 232.55 -10.19 232.53362 -10.27564 C 232.52 -10.36 232.5 -10.44 232.48748 -10.52263 C 232.47 -10.6 232.46 -10.69 232.4447 -10.7696 C 232.43 -10.85 232.42 -10.93 232.40541 -11.0165 C 232.4 -11.06 232.39 -11.1 232.38582 -11.14897 C 232.38 -11.19 232.37 -11.24 232.3673 -11.28138 C 232.36 -11.33 232.36 -11.37 232.34987 -11.41374 C 232.34 -11.46 232.34 -11.5 232.33356 -11.54606 C 232.33 -11.59 232.32 -11.63 232.31839 -11.67833 C 232.31 -11.72 232.31 -11.77 232.30438 -11.81057 C 232.3 -11.85 232.3 -11.9 232.29156 -11.94278 C 232.29 -11.99 232.28 -12.03 232.27996 -12.07495 C 232.28 -12.12 232.27 -12.16 232.26961 -12.20709 C 232.27 -12.25 232.26 -12.3 232.26053 -12.3392 C 232.26 -12.38 232.26 -12.43 232.25275 -12.47128 C 232.25 -12.52 232.25 -12.56 232.24631 -12.60331 C 232.24 -12.69 232.24 -12.78 232.23758 -12.86725 C 232.24 -12.96 232.23 -13.04 232.2346 -13.13096" />
    <path d="M 242.2346 -17.8938 C 242.23 -17.87 242.23 -17.84 242.23373 -17.81782 C 242.23 -17.79 242.23 -17.77 242.23114 -17.74095 C 242.23 -17.72 242.23 -17.69 242.22686 -17.66325 C 242.23 -17.64 242.22 -17.61 242.22094 -17.58473 C 242.22 -17.56 242.22 -17.53 242.21342 -17.50543 C 242.21 -17.48 242.21 -17.45 242.20434 -17.4254 C 242.2 -17.4 242.2 -17.37 242.19374 -17.34467 C 242.19 -17.32 242.19 -17.29 242.18167 -17.26329 C 242.17 -17.21 242.16 -17.15 242.15188 -17.09127 C 242.14 -17.03 242.13 -16.98 242.11622 -16.91678 C 242.1 -16.86 242.09 -16.8 242.07507 -16.74002 C 242.06 -16.68 242.05 -16.62 242.02877 -16.5612 C 242.01 -16.5 242 -16.44 241.97768 -16.38052 C 241.96 -16.32 241.94 -16.26 241.92213 -16.1982 C 241.9 -16.14 241.88 -16.08 241.86246 -16.01443 C 241.84 -15.95 241.82 -15.89 241.79898 -15.82944 C 241.78 -15.77 241.75 -15.7 241.72974 -15.63727 C 241.71 -15.57 241.68 -15.51 241.65697 -15.44392 C 241.63 -15.38 241.61 -15.31 241.58096 -15.24952 C 241.56 -15.18 241.53 -15.12 241.50194 -15.05417 C 241.48 -14.99 241.45 -14.92 241.42015 -14.858 C 241.39 -14.79 241.36 -14.73 241.33582 -14.66109 C 241.31 -14.6 241.28 -14.53 241.24915 -14.46355 C 241.22 -14.4 241.19 -14.33 241.16035 -14.26546 C 241.13 -14.2 241.1 -14.13 241.06958 -14.0669 C 241.04 -14 241.01 -13.93 240.97703 -13.86795 C 240.91 -13.74 240.85 -13.6 240.7872 -13.46917 C 240.66 -13.2 240.53 -12.94 240.39248 -12.66964 C 239.85 -11.6 239.29 -10.54 238.71628 -9.47043 C 238.28 -8.65 237.84 -7.83 237.41633 -7.01736" />
    <path d="M 233.38921 -7.07044 A 5 0.14738 180 0 0 237.41633 -7.01736" />
    <path d="M 232.67022 -22.21829 A 5 0.14738 360 0 1 242.2346 -22.15813 L 242.2346 -17.8938" />
    <path d="M 242.2346 -22.15813 A 5 0.14738 360 0 1 232.2346 -22.15813 L 232.2346 -13.13096" />
    <path d="M 232.2346 -22.15813 A 5 0.14738 360 0 1 232.67022 -22.21829" />
    <path d="M 269.6276 -24.65265 A 5 0.14738 360 0 1 278.97594 -24.57989 L 278.97594 -21.37245" />
    <path d="M 278.97594 -24.57989 A 5 0.14738 360 0 1 275.48965 -24.43943" />
    <path d="M -137.04002 37.8846 L -137.04002 25.88981" />
    <path d="M 117.44464 -24.03384 L 117.44464 -24.09842" />
    <path d="M 537.36758 -18.49833 L 537.36758 -18.56304" />
    <path d="M 450.08361 -12.80981 L 450.08361 -16.42004" />
    <path d="M 645.7274 -15.81837 L 645.7274 -3.82358" />
    <path d="M -645.7274 16.31815 L -645.7274 28.31294" />
    <path d="M -595.7274 16.31815 L -595.7274 16.91062" />
    <path d="M -595.7274 31.60852 L -595.7274 40.30772" />
    <path d="M 595.7274 -15.81837 L 595.7274 -15.2259" />
    <path d="M 595.7274 0.41573 L 595.7274 8.1712" />
</svg>