<svg version="1.1" xmlns="http://www.w3.org/2000/svg" viewBox="-1036.6373033384823 -24.82807897172533 2073.274606676965 49.65615794345066" fill="none" stroke="black" stroke-width="0.6%" vector-effect="non-scaling-stroke">
    <path d="M 511.09484 -10.87326 L 59.85652 -13.23035 L -489.14745 -3.59143" />
    <path d="M -1009.57991 -5.27364 L -1009.57991 18.72526 L -43.89478 23.76961 A 50 0.47883 180 0 0 22.35262 23.60448 L 22.35262 -0.39442 L 23.94261 -0.42036 L 1029.53208 -18.0756 L 1032.18676 -18.1301 A 50 0.47883 180 0 0 1035.6373 -18.30489 L 1035.6373 5.69401" />
    <path d="M -1009.57991 -5.27364 L -43.89478 -0.22929 A 50 0.47883 180 0 0 22.35262 -0.39442" />
    <path d="M -43.89478 23.76961 L -43.89478 -0.22929" />
    <path d="M -1032.18676 -5.8688 A 50 0.47883 180 0 0 -1035.6373 -5.69401 A 50 0.47883 180 0 0 -1009.57991 -5.27364" />
    <path d="M -1035.6373 18.30489 A 50 0.47883 180 0 0 -1009.57991 18.72526" />
    <path d="M 22.35262 23.60448 L 23.94261 23.57854 L 23.94261 -0.42036" />
    <path d="M 23.94261 23.57854 L 1029.53208 5.9233 L 1029.53208 -18.0756" />
    <path d="M 1029.53208 5.9233 L 1032.18676 5.8688 L 1032.18676 -18.1301" />
    <path d="M 1032.18676 5.8688 A 50 0.47883 180 0 0 1035.6373 5.69401" />
    <path d="M -1029.53208 -5.9233 L -1032.18676 -5.8688" />
    <path d="M 1035.6373 -18.30489 A 50 0.47883 180 0 0 1009.57991 -18.72526 L 43.89478 -23.76961 A 50 0.47883 180 0 0 -22.35262 -23.60448 L -23.94261 -23.57854 L -1029.53208 -5.9233" />
    <path d="M -882.0078 -5.89853 L -882.0078 -6.59771 A 100 0.95766 180 0 0 -888.90889 -6.24812 A 100 0.95766 180 0 0 -836.7941 -5.4074 L -125.69868 -1.69292 A 100 0.95766 180 0 0 6.79612 -2.02318 L 9.97609 -2.07506 L 876.69844 -17.2922 L 882.0078 -17.40119 A 100 0.95766 180 0 0 888.90889 -17.75078 A 100 0.95766 180 0 0 836.7941 -18.5915 L 125.69868 -22.30598 A 100 0.95766 180 0 0 -6.79612 -21.97572 L -9.97609 -21.92384 L -876.69844 -6.7067 L -882.0078 -6.59771" />
    <path d="M -876.69844 -5.78954 L -876.69844 -6.7067" />
    <path d="M -9.97609 -12.00429 L -9.97609 -21.92384" />
    <path d="M -6.79612 -12.06012 L -6.79612 -21.97572" />
    <path d="M 125.69868 -12.88642 L 125.69868 -22.30598" />
    <path d="M 836.7941 -16.5916 L 836.7941 -18.5915" />
    <path d="M -1035.6373 -5.69401 L -1035.6373 18.30489" />
</svg>