<svg version="1.1" xmlns="http://www.w3.org/2000/svg" viewBox="-1036.647612882682 -24.87590180458831 2073.2952257653646 49.75180360917661" fill="none" stroke="black" stroke-width="0.6%" vector-effect="non-scaling-stroke">
    <path d="M -1009.59091 -5.24659 L -1009.59091 18.7523 L -43.91402 23.81719 L -43.91402 -0.1817 A 50 0.48077 180 0 0 22.33365 -0.34749 L 23.92367 -0.37353 L 1029.54202 -18.10001 L 1032.19679 -18.15473 A 50 0.48077 180 0 0 1035.64761 -18.33024 A 50 0.48077 180 0 0 1009.59091 -18.7523 L 43.91402 -23.81719 A 50 0.48077 180 0 0 -22.33365 -23.6514 L -23.92367 -23.62536 L -1029.54202 -5.89888 L -1032.19679 -5.84416 A 50 0.48077 180 0 0 -1035.64761 -5.66865 A 50 0.48077 180 0 0 -1009.59091 -5.24659 L -43.91402 -0.1817" />
    <path d="M -1035.64761 18.33024 A 50 0.48077 180 0 0 -1009.59091 18.7523" />
    <path d="M 22.33365 23.6514 L 22.33365 -0.34749" />
    <path d="M -43.91402 23.81719 A 50 0.48077 180 0 0 22.33365 23.6514 L 23.92367 23.62536 L 23.92367 -0.37353" />
    <path d="M 23.92367 23.62536 L 1029.54202 5.89888 L 1029.54202 -18.10001" />
    <path d="M 1029.54202 5.89888 L 1032.19679 5.84416 L 1032.19679 -18.15473" />
    <path d="M 1032.19679 5.84416 A 50 0.48077 180 0 0 1035.64761 5.66865" />
    <path d="M -882.01664 -6.29084 L -882.01664 -6.576 A 100 0.96153 180 0 0 -888.91829 -6.22498 A 100 0.96153 180 0 0 -836.80488 -5.38086 L -125.71554 -1.65125 A 100 0.96153 180 0 0 6.7798 -1.98283 L 9.95986 -2.03493 L 876.7071 -17.31347 L 882.01664 -17.42289 A 100 0.96153 180 0 0 888.91829 -17.77391 A 100 0.96153 180 0 0 836.80488 -18.61803 L 125.71554 -22.34764 A 100 0.96153 180 0 0 -6.7798 -22.01606 L -9.95986 -21.96396 L -876.7071 -6.68542 L -882.01664 -6.576" />
    <path d="M -876.7071 -6.55663 L -876.7071 -6.68542" />
    <path d="M -9.95986 -21.86357 L -9.95986 -21.96396" />
    <path d="M -6.7798 -21.91815 L -6.7798 -22.01606" />
    <path d="M 125.71554 -22.29259 L 125.71554 -22.34764" />
    <path d="M 836.80488 -18.55984 L 836.80488 -18.61803" />
    <path d="M -830.02111 -5.40004 L -830.02111 -5.34528" />
    <path d="M -830.02111 -5.40004 L -127.71065 -1.71648 A 100 0.96153 180 0 0 4.78469 -2.04806 L 7.96475 -2.10016 L 869.92333 -17.29428 L 875.23287 -17.40371 A 100 0.96153 180 0 0 882.13452 -17.75473 L 882.13452 -17.4258" />
    <path d="M -127.71065 -1.66172 L -127.71065 -1.71648" />
    <path d="M 4.78469 -1.95358 L 4.78469 -2.04806" />
    <path d="M 7.96475 -2.00224 L 7.96475 -2.10016" />
    <path d="M 869.92333 -17.19389 L 869.92333 -17.29428" />
    <path d="M 875.23287 -17.28748 L 875.23287 -17.40371" />
    <path d="M 882.13452 -17.75473 A 100 0.96153 180 0 0 830.02111 -18.59885 L 127.71065 -22.28241 A 100 0.96153 180 0 0 -4.78469 -21.95083 L -7.96475 -21.89873 L -869.92333 -6.70461 L -875.23287 -6.59518 A 100 0.96153 180 0 0 -882.13452 -6.24416 L -882.13452 -5.87687" />
    <path d="M -882.13452 -6.24416 A 100 0.96153 180 0 0 -830.02111 -5.40004" />
    <path d="M -760.846 -6.61151 A 50 0.48077 180 0 0 -764.29682 -6.436 A 50 0.48077 180 0 0 -738.24012 -6.01394 L -123.71846 -2.79082 A 50 0.48077 180 0 0 -57.47079 -2.95661 L -55.88077 -2.98266 L 758.19123 -17.33267 L 760.846 -17.38738 A 50 0.48077 180 0 0 764.29682 -17.56289 A 50 0.48077 180 0 0 738.24012 -17.98495 L 123.71846 -21.20807 A 50 0.48077 180 0 0 57.47079 -21.04228 L 55.88077 -21.01623 L -758.19123 -6.66622 L -760.846 -6.61151 Z" />
    <path d="M -760.846 -6.26049 L -760.846 -6.61151" />
    <path d="M -758.19123 -6.20578 L -758.19123 -6.66622" />
    <path d="M 55.88077 -12.19664 L -396.53413 -4.22172" />
    <path d="M 55.88077 -12.19664 L 55.88077 -21.01623" />
    <path d="M 57.47079 -12.22269 L 55.88077 -12.19664" />
    <path d="M 57.47079 -12.22269 L 57.47079 -21.04228" />
    <path d="M 57.47079 -12.22269 A 50 0.48077 360 0 1 123.71846 -12.38847 L 123.71846 -21.20807" />
    <path d="M 396.53413 -10.95758 L 123.71846 -12.38847" />
    <path d="M 738.24012 -16.98098 L 738.24012 -17.98495" />
    <path d="M -1035.64761 -5.66865 L -1035.64761 18.33024" />
    <path d="M 1035.64761 -18.33024 L 1035.64761 5.66865" />
</svg>